<?xml version="1.0" encoding="utf-8"?>
<!-- Generator: Adobe Illustrator 23.0.1, SVG Export Plug-In . SVG Version: 6.00 Build 0)  -->
<svg version="1.1" xmlns="http://www.w3.org/2000/svg" xmlns:xlink="http://www.w3.org/1999/xlink" x="0px" y="0px"
	 viewBox="0 0 873.59 536.9" style="enable-background:new 0 0 873.59 536.9;" xml:space="preserve">
<style type="text/css">
	.st0{display:none;}
	path { fill: #007cb0;}
</style>
<g id="Ebene_2">
	<g>
		<path d="M448.7,314.72c1.22-0.11,2.41-0.36,3.57-0.27c1.89,0.14,3.88,0.19,5.62,0.84c9.14,3.4,13.23,11.38,12.18,21.1
			c-1.18,10.89-4.99,21.09-7.14,31.7c-1.54,7.6-4.07,15.12-3.64,22.95c0.26,4.7,1.43,9.41,2.7,13.98c1.01,3.61,3.79,4.35,6.6,1.71
			c2.76-2.59,5.49-5.5,7.27-8.79c4.32-8,8.35-16.19,11.96-24.53c1.93-4.46,2.67-9.43,4.09-14.13c2.85-9.44,3.94-19.19,5.47-28.88
			c1.77-11.22,3.86-22.39,5.75-33.58c0.53-3.13,0.88-6.3,1.37-9.94c-2.12,0-3.65-0.03-5.17,0.01c-3.46,0.07-6.92,0.26-10.38,0.23
			c-2.5-0.02-4.59-1.64-4.9-3.48c-0.35-2.07,1.15-4.27,3.68-5.02c1.58-0.47,3.25-0.64,4.89-0.86c3.9-0.54,7.83-0.91,11.69-1.65
			c0.85-0.16,1.9-1.46,2.11-2.4c1.09-4.74,1.61-9.64,2.93-14.31c3.2-11.28,6.65-22.5,10.19-33.68c0.93-2.94,2.45-5.72,3.86-8.49
			c1.27-2.47,3.31-3.34,5.67-2.66c2.27,0.66,2.61,2.47,2.75,4.51c0.55,7.62-0.66,15.04-2.28,22.44
			c-2.38,10.86-4.63,21.75-7.07,33.25c1.49-0.08,2.58-0.07,3.66-0.21c1.06-0.14,2.09-0.58,3.16-0.64c3.33-0.21,5.68,1.38,6.3,4.12
			c0.62,2.78-1.04,5.84-4.18,6.61c-2.86,0.7-5.88,0.74-8.84,1.04c-1.26,0.13-2.54,0.17-3.77,0.24c-1.72,6.94-3.36,13.54-4.98,20.14
			c-2.39,9.76-4.85,19.51-7.1,29.3c-1.34,5.82-2.63,11.67-3.44,17.58c-1.2,8.75-2.25,17.55-2.77,26.36
			c-0.35,5.93,0.03,11.96,0.63,17.88c0.25,2.47,1.54,5.07,3.03,7.14c2.28,3.18,5.34,3.24,7.87,0.33c2.51-2.88,4.94-5.9,6.93-9.15
			c6.42-10.5,12.6-21.14,18.91-31.7c5.57-9.32,11.4-18.49,16.67-27.98c1.26-2.28,1.14-5.58,0.92-8.36
			c-0.26-3.37,0.99-6.11,2.43-8.85c1.44-2.73,4.04-4.06,6.93-4.65c3.04-0.63,6.87,2.46,7.45,5.84c0.52,3.03,0.51,6.07-1.31,8.67
			c-3.19,4.55-3.2,9-0.85,14.02c2.26,4.82,3.55,10.08,5.65,14.99c1.4,3.26,3.57,6.19,5.26,9.35c3.43,6.41,6.82,12.91,8.87,19.85
			c1.89,6.41,2.96,13.16-1.21,19.37c-0.19,0.29-0.3,0.64-0.41,0.98c-0.03,0.08,0.07,0.2,0.29,0.8c1.15-0.96,2.43-1.65,3.18-2.71
			c2.97-4.18,6.06-8.32,8.58-12.77c2.77-4.89,5.31-9.98,7.32-15.22c2.19-5.68,3.89-11.57,5.38-17.47c1.81-7.18,3.32-14.44,4.7-21.71
			c0.87-4.57,1.2-9.25,1.92-13.85c0.93-5.9,2.02-11.78,3.04-17.67c0.88-5.07,1.8-10.13,2.6-15.2c0.2-1.26,0.03-2.57,0.03-4.16
			c-1.5-0.08-2.79-0.22-4.07-0.2c-3.46,0.06-6.92,0.22-10.38,0.27c-2.84,0.04-5.28-1.58-5.57-3.58c-0.31-2.14,1.26-4.39,4.15-5
			c3.47-0.74,7.05-0.95,10.57-1.46c2.35-0.34,4.69-0.8,6.98-1.2c1.08-4.62,2.26-8.97,3.09-13.38c2.08-11.1,5.36-21.86,9.17-32.46
			c1.53-4.27,3.52-8.38,5.32-12.55c0.83-1.93,2.21-3.07,4.43-3.05c2.52,0.03,3.8,1.07,3.99,3.63c0.48,6.36,0.15,12.71-1.14,18.95
			c-2.19,10.67-4.6,21.29-6.9,31.93c-0.38,1.74-0.63,3.51-1.04,5.83c1.37-0.08,2.47-0.08,3.55-0.23c1.06-0.14,2.09-0.58,3.15-0.64
			c3.45-0.2,5.82,1.52,6.39,4.49c0.47,2.49-1.33,5.53-4.3,6.24c-2.86,0.69-5.88,0.75-8.83,1.05c-1.25,0.13-2.51,0.18-3.68,0.25
			c-1.07,3.95-2.12,7.49-2.98,11.07c-2.24,9.31-4.35,18.64-6.6,27.95c-1.69,6.97-4.01,13.83-5.14,20.89
			c-1.47,9.19-2.21,18.51-2.95,27.79c-0.5,6.3-0.68,12.66-0.57,18.98c0.06,3.05,0.97,6.12,1.81,9.09c0.37,1.3,1.39,2.52,2.38,3.51
			c2.42,2.43,4.51,2.6,6.82,0.12c3.16-3.39,5.86-7.19,8.96-10.65c3.33-3.72,3.61-7.92,3.89-12.76c0.53-9.23,1.09-18.65,3.94-27.52
			c3.09-9.63,6.5-19.24,13.14-27.24c1.37-1.65,2.37-3.61,3.72-5.28c6.03-7.39,14.91-9.31,24.01-6.46c5.3,1.65,8.15,5.57,11.63,9.08
			c4.02,4.05,5.47,9.43,7.22,14.6c0.51,1.51,0.16,3.31,0.17,4.98c0.02,2.35,0,4.7,0,7.87c2.82-1.15,5.07-1.81,7.05-2.94
			c3.62-2.06,7.25-4.19,10.58-6.68c3.82-2.85,7.49-5.97,10.86-9.33c1.07-1.07,1.15-3.27,1.4-5c1.49-10.4,2.76-20.84,4.39-31.21
			c1.18-7.55,2.56-15.1,4.31-22.53c1.64-6.96,3.63-13.85,5.93-20.62c2.38-7,5.08-13.91,8.06-20.67c2.73-6.2,6.8-11.66,12.82-14.96
			c7.36-4.04,13.11-2.04,16.67,6.24c2.09,4.86,0.96,9.89,0.84,14.89c-0.21,8.56-3.39,16.36-6.08,24.25
			c-2.89,8.48-5.98,16.91-9.48,25.16c-3.07,7.25-6.98,14.13-10.22,21.31c-3.54,7.86-8.94,14.4-14.2,21.06
			c-3,3.8-4.97,7.84-5.69,12.86c-1.37,9.57-3.61,19.02-5.52,28.51c-0.59,2.93-1.33,5.83-1.91,8.77c-0.17,0.86-0.03,1.79,0.64,2.98
			c2.52-3.1,5.07-6.18,7.55-9.32c5.57-7.03,11.05-14.13,16.67-21.12c4.41-5.48,8.7-11.12,13.58-16.16c4.51-4.66,6.4-9.94,6.94-16.23
			c0.43-4.98,1.74-9.89,2.77-14.81c2.13-10.15,4.31-20.28,6.51-30.41c0.89-4.08,1.73-8.18,2.86-12.19
			c2.39-8.48,4.94-16.92,7.44-25.37c2.13-7.17,6.16-13.22,11.41-18.43c3.74-3.72,10.52-4.9,14.94-2.13
			c2.15,1.34,3.87,3.92,4.95,6.31c1.74,3.86,1.77,8.16,1.47,12.36c-0.71,9.81-2.6,19.36-6.21,28.57
			c-2.13,5.45-3.76,11.09-5.86,16.55c-1.5,3.89-3.27,7.69-5.14,11.42c-3.86,7.71-7.64,15.48-11.89,22.98
			c-2.59,4.56-5.91,8.73-9.06,12.95c-2.95,3.96-5.47,7.9-6.28,13.05c-1.77,11.21-4.12,22.33-6.24,33.48
			c-0.28,1.48-0.63,2.94-0.95,4.41c0.22,0.09,0.43,0.19,0.65,0.28c2.14-2.79,4.26-5.6,6.42-8.38c4.48-5.73,8.87-11.54,13.51-17.13
			c6.96-8.37,13.98-16.69,21.23-24.82c4.29-4.82,9.06-9.22,13.62-13.8c0.17-0.17,0.4-0.27,0.6-0.39c1.43-0.83,2.99-2.21,4.45-0.41
			c1.29,1.59-0.16,2.95-1.16,4.07c-3.51,3.93-7.28,7.64-10.64,11.7c-5.72,6.91-11.17,14.05-16.8,21.03
			c-5.4,6.7-11.01,13.22-16.28,20.03c-4.61,5.96-8.85,12.2-13.29,18.3c-0.77,1.06-1.64,2.05-2.52,3.03
			c-1.65,1.84-2.67,3.89-2.86,6.43c-0.12,1.51-0.94,2.95-1.15,4.46c-1.75,12.08-3.37,24.17-5.14,36.25
			c-1.74,11.84-3.5,23.67-5.47,35.47c-1,6.01-2.76,11.89-3.67,17.91c-0.53,3.47-1.16,6.76-2.7,9.95c-2.56,5.32-6.88,8.9-12.16,10.6
			c-6.11,1.97-12.61-0.32-15.91-8.65c-2.94-7.44-3.18-15.09-2.2-22.96c1.08-8.71,2.87-17.2,5.88-25.44
			c5.1-13.99,11.15-27.49,19.58-39.86c4.66-6.83,9.22-13.76,13.27-20.95c1.69-3,2.15-6.79,2.78-10.28
			c2.29-12.84,4.41-25.71,6.59-38.56c0.06-0.34-0.03-0.7-0.1-1.96c-3.09,3.43-5.82,6.32-8.37,9.34
			c-4.63,5.48-9.16,11.04-13.71,16.58c-1.67,2.03-3.23,4.15-4.89,6.18c-3.33,4.08-6.65,8.16-10.07,12.17
			c-2.09,2.45-4.59,4.57-6.45,7.18c-1.34,1.87-2.32,4.22-2.74,6.48c-1.08,5.76-1.8,11.59-2.58,17.4c-1.1,8.3-1.95,16.65-3.21,24.93
			c-2.14,14.07-4.39,28.13-6.86,42.15c-0.89,5.01-2.31,9.97-3.95,14.8c-2,5.87-6.75,9.45-12.26,11.4
			c-4.91,1.74-9.84,0.66-13.71-4.38c-2.86-3.72-3.77-8.22-4.66-12.7c-0.85-4.29-0.64-8.58,0.07-12.87
			c1.01-6.12,1.68-12.33,3.17-18.33c1.12-4.48,3.17-8.75,5.05-13c4.64-10.52,9.05-21.17,14.29-31.39
			c3.48-6.79,8.1-13.02,12.44-19.34c3.14-4.59,5.67-9.17,6.48-14.91c1.9-13.5,4.46-26.9,6.74-40.35c0.04-0.22-0.06-0.46-0.15-1.05
			c-10.27,4.78-17.82,13.52-27.78,18.32c-2.21,7.07-4.18,14.18-6.69,21.1c-1.78,4.9-4.1,9.63-6.49,14.28
			c-3.02,5.88-8.02,9.86-13.23,13.84c-4.83,3.7-9.64,3.52-15.19,3.08c-7.97-0.63-12.76-5.25-17-11.13c-0.2-0.28-0.51-0.49-0.95-0.89
			c-1.78,1.73-3.53,3.44-5.29,5.15c-1.54,1.49-3.17,2.91-4.63,4.48c-4.46,4.79-13.16,4.12-17.94,0.94
			c-5.71-3.81-7.5-9.38-8.41-15.55c-0.4-2.72-0.48-5.48-0.77-8.93c-1.57,2.55-2.71,4.66-4.11,6.59
			c-3.99,5.52-7.88,11.14-12.21,16.39c-3.62,4.38-8.48,5.12-13.7,2.89c-1.84-0.79-3.46-0.77-5.44-0.14
			c-8.55,2.71-16.58,1.41-23.82-3.95c-4.63-3.43-6.86-10.98-5.1-16.49c0.68-2.13,2.15-3.01,4.3-3.13c2.65-0.15,4.67,0.71,5.59,3
			c0.56,1.39,0.74,3.03,0.68,4.54c-0.17,4.35,0.82,6.1,4.75,7.71c8.25,3.39,17.88-3.9,16.58-12.74c-0.48-3.26-1.52-6.49-2.75-9.56
			c-1.98-4.97-3.75-10.17-6.66-14.59c-3.67-5.57-6.09-11.54-8.26-17.73c-0.45-1.29-1.47-2.38-2.82-4.49
			c-0.57,1.1-0.86,1.76-1.24,2.37c-4.37,7.09-8.81,14.14-13.13,21.27c-5.87,9.7-11.63,19.47-17.48,29.18
			c-1.97,3.26-4.17,6.38-6.09,9.67c-4.37,7.48-14.91,7.68-20.96,3.84c-6.82-4.32-8.19-11.11-8.98-18.26
			c-0.2-1.85-0.18-3.72-0.86-5.67c-1.23,1.98-2.35,4.04-3.73,5.92c-4.17,5.68-8.18,11.51-12.73,16.88
			c-5.45,6.42-18.3,5.32-22.49-4.99c-2.5-6.15-4.11-12.57-3.94-19.19c0.11-4.6,1.02-9.2,1.87-13.75c0.96-5.16,2.18-10.28,3.41-15.39
			c1.33-5.56,2.62-11.13,4.26-16.6c1.37-4.58,1.64-9.2,1.04-13.82c-0.54-4.16-6.07-5.96-9.13-3.2c-4.86,4.39-8.53,9.61-11.03,15.68
			c-2.63,6.4-5.68,12.64-7.95,19.17c-3.8,10.95-9.27,21.3-11.75,32.74c-1.49,6.87-3.42,13.64-5.1,20.47
			c-0.67,2.73-2.25,4.14-4.99,4.29c-2.45,0.13-5.01-1.29-5.52-3.64c-0.46-2.15-0.32-4.46-0.28-6.69c0.02-0.79,0.65-1.55,0.78-2.37
			c0.63-3.76,1.18-7.53,1.38-11.56c-1.45,1.96-2.61,4.26-4.41,5.83c-5.14,4.48-10.53,8.67-15.82,12.97
			c-5.15,0.62-9.96,3.17-15.45,2.1c-5.37-1.05-10.48-2.46-14.78-5.94c-1.08-0.87-1.98-2.02-2.78-3.17
			c-1.15-1.64-2.14-3.39-3.51-5.59c-0.83,1.38-1.48,2.2-1.85,3.14c-1.64,4.12-4.54,7.31-7.64,10.3c-2.81,2.71-6.33,3.37-10.04,2.38
			c-8.47-2.26-13.86-7.61-15.88-16.23c-0.73-3.11-1.51-6.21-2.46-10.13c-1.62,2.96-3.08,5.19-4.12,7.61
			c-2.68,6.25-6.75,11.56-11.06,16.68c-0.94,1.11-2.55,2.11-3.96,2.27c-4.9,0.58-9.61,0.36-14.13-2.49
			c-5.36-3.38-7.64-8.48-8.77-14.1c-1.09-5.46-1.26-11.11-1.84-16.74c-0.23,0.28-0.76,0.67-0.98,1.2
			c-3.04,7.39-8.19,13.45-12.54,20.02c-2.18,3.3-4.32,6.54-8.07,8.4c-5.29,2.62-10.39,4.01-16.45,1.91
			c-4.24-1.47-8.2-3.22-11.88-5.64c-1.56-1.02-2.78-2.56-4.29-3.99c-0.64,0.25-1.36,0.4-1.91,0.77c-2.84,1.92-5.57,4-8.45,5.85
			c-5.09,3.28-10.62,3.63-16.46,2.45c-7.26-1.47-12.71-5.56-17.71-10.8c-4.06-4.27-6.59-9.37-8.96-14.54
			c-1.4-3.07-1.67-6.66-2.46-10.01c-0.27-1.15-0.6-2.3-1.1-4.2c-2.27,3.12-4.44,5.59-6.02,8.4c-3.83,6.8-9.1,12.51-13.67,18.75
			c-2.19,2.99-4.44,5.94-6.52,9.01c-1.6,2.36-3.84,3.85-5.79,3.46c-2.57-0.5-4.06-2.15-4.55-5.31c-0.38-2.48-0.52-5-0.85-7.49
			c-1-7.79-1.16-15.75-3.67-23.27c-2.64-7.92-5.34-15.84-8.54-23.54c-3.5-8.44-7.5-16.68-11.47-24.91
			c-3.25-6.75-7.18-13.12-11.38-19.34c-2.54-3.76-4.07-8.25-6.85-11.77c-4.01-5.08-6.59-10.97-10.16-16.28
			c-6.12-9.11-10.96-18.96-15.56-28.94c-2.85-6.18-5.92-12.22-7.92-18.76c-1-3.28-2.68-6.35-3.76-9.61
			c-1.82-5.54-3.35-11.17-5.09-16.74c-2.67-8.58-4.03-17.41-5.16-26.28c-1.07-8.33-1.38-16.7-0.62-25.08
			c0.28-3.09,1.25-6.12,1.47-9.2c0.76-10.25,5.33-19.4,8.1-29.06c2.53-8.85,7.46-16.55,11.07-24.87c1.39-3.2,4.02-5.84,5.97-8.81
			c1.44-2.2,2.56-4.61,4.08-6.75c1.59-2.22,3.52-4.2,5.25-6.33c1.88-2.32,3.53-4.85,5.6-6.98c4.05-4.17,8.42-8.04,12.49-12.21
			c5.32-5.44,11.72-9.38,17.94-13.63c8.79-6.01,18.39-10.07,28.48-13.2c6.8-2.11,13.49-4.62,20.37-6.4
			c4.72-1.22,9.7-1.37,14.52-2.23c8.88-1.57,17.83-1.61,26.76-1.02c5.1,0.34,10.16,1.54,15.21,2.46c5.75,1.05,11.48,2.18,17.21,3.35
			c1.51,0.31,2.96,0.93,4.46,1.33c4.25,1.13,8.61,1.95,12.75,3.4c5.34,1.88,10.75,3.6,15.76,6.43c6.02,3.4,12.35,6.25,18.51,9.4
			c1.47,0.75,2.86,1.69,4.2,2.67c3.65,2.65,7.32,5.28,10.85,8.1c2.32,1.86,4.4,4.01,6.57,6.05c1.88,1.76,3.84,3.46,5.61,5.33
			c8.45,8.92,14.68,19.31,20.46,30.11c7.32,13.68,11.5,28.38,14.74,43.33c1.71,7.89,1.93,16.11,2.76,24.18
			c0.24,2.37,0.12,4.78,0.45,7.13c1.01,7.21-0.81,14.24-1.13,21.37c-0.33,7.46-1.79,14.73-3.87,21.88
			c-3.25,11.17-7.42,21.98-12.96,32.24c-3.69,6.84-7.19,13.79-11.1,20.5c-1.78,3.06-4.28,5.72-6.62,8.42
			c-1.14,1.32-2.67,1.99-4.48,0.79c-1.72-1.14-2.39-2.65-1.98-4.61c0.17-0.81,0.47-1.63,0.88-2.34c4.53-7.87,9.35-15.58,13.58-23.6
			c6.02-11.45,11.31-23.28,14-36.02c1.08-5.12,1.4-10.41,1.87-15.65c0.54-5.95,0.96-11.9,1.26-17.87c0.12-2.49-0.12-5.01-0.37-7.5
			c-0.59-5.91-1.38-11.81-1.91-17.72c-1.03-11.43-4.75-22.17-8.48-32.88c-2.55-7.33-6.08-14.24-9.89-21.06
			c-3.76-6.73-8.57-12.6-13.01-18.78c-0.77-1.06-1.62-2.11-2.61-2.96c-5.5-4.7-10.4-10.11-16.8-13.76
			c-3.59-2.05-6.76-4.82-10.35-6.87c-4.95-2.83-10.06-5.43-15.22-7.88c-4.62-2.19-9.36-4.12-14.13-5.97
			c-1.85-0.71-3.94-0.79-5.88-1.29c-2.41-0.63-4.78-1.4-7.18-2.1c-1.49-0.43-2.97-0.93-4.48-1.23c-8.88-1.75-17.74-3.62-26.66-5.08
			c-4.08-0.67-8.3-0.59-12.46-0.65c-9.36-0.14-18.49,1.87-27.66,3.33c-3.34,0.53-6.49,2.21-9.75,3.26
			c-1.45,0.47-3.04,0.53-4.47,1.05c-5.94,2.18-11.82,4.54-17.77,6.71c-6.61,2.42-12.02,6.81-17.88,10.49
			c-8.39,5.26-15.05,12.39-21.81,19.41c-3.37,3.5-6.34,7.41-9.44,11.17c-0.52,0.63-0.86,1.44-1.19,2.2c-2,4.65-4.84,8.76-8.01,12.66
			c-0.45,0.55-0.82,1.17-1.15,1.81c-2.44,4.78-4.99,9.52-7.23,14.39c-1.64,3.57-2.97,7.29-4.24,11.01
			c-1.84,5.4-3.88,10.77-5.17,16.31c-2.64,11.31-4.69,22.75-3.54,34.45c0.77,7.83,1.83,15.63,2.92,23.42
			c0.31,2.23,1.15,4.4,1.87,6.56c2.62,7.9,3.85,16.23,7.87,23.71c1.62,3.01,2.19,6.58,3.6,9.73c2.74,6.1,5.45,12.24,8.69,18.07
			c4.8,8.65,10.04,17.05,15.1,25.56c3.59,6.04,7.16,12.1,10.79,18.12c0.99,1.64,2.14,3.18,3.3,4.7c4.45,5.83,7.42,12.49,10.72,18.97
			c2.49,4.89,5.09,9.72,7.64,14.58c0.17,0.32,0.36,0.63,0.48,0.96c3.16,8.5,6.68,16.88,9.36,25.53c2.11,6.8,3.22,13.92,4.69,20.91
			c0.65,3.09,1.11,6.23,1.68,9.49c0.46-0.3,0.83-0.42,1-0.68c5.24-8.14,10.49-16.27,15.67-24.44c2.43-3.84,4.77-7.73,7.06-11.66
			c0.57-0.97,1.04-2.17,1.04-3.27c0.01-3.23-0.19-6.47-0.41-9.7c-0.27-3.93-0.84-7.86-0.9-11.79c-0.07-4.4,0.22-8.81,0.45-13.2
			c0.37-6.9,0.78-13.79,1.27-20.68c0.17-2.37,0.59-4.72,1-7.06c0.87-5.04,1.84-10.06,2.71-15.1c1.01-5.85,1.88-11.73,2.97-17.56
			c0.39-2.09,1.4-4.05,1.91-6.13c1.63-6.62,3-13.37,6.23-19.42c4.23-7.9,9-15.48,16.08-21.26c6.32-5.16,13.07-6.52,20.67-2.77
			c3.79,1.87,4.97,5.33,6.06,8.81c1.89,6.05,1.67,12.39,0.82,18.48c-0.89,6.44-2.98,12.72-4.61,19.06
			c-0.56,2.19-1.24,4.36-1.97,6.51c-3.36,9.82-6.59,19.69-10.21,29.42c-3.2,8.59-6.85,17.01-10.31,25.5
			c-1.88,4.62-3.52,9.37-5.78,13.79c-2.87,5.62-6.22,10.99-9.43,16.44c-1.31,2.22-3.03,4.22-4.08,6.54c-0.69,1.53-0.9,3.52-0.64,5.2
			c1.1,7.16,2.08,14.38,3.87,21.38c0.92,3.58,3.05,7.07,5.38,10.01c2.54,3.21,5.36,6.33,9.43,8.02c3.62,1.5,7.32,1.85,10.86,0.68
			c2.51-0.83,4.67-2.76,6.9-4.32c1.16-0.81,2.15-1.87,3.39-2.97c-0.86-3.45-1.91-6.98-2.57-10.58c-0.52-2.79-0.61-5.67-0.78-8.52
			c-0.38-6.14,0.36-12.2,1.86-18.12c1.22-4.81,1.56-9.82,4.33-14.28c2.42-3.9,3.69-8.5,6.02-12.48c2.65-4.52,5.72-8.83,8.97-12.95
			c1.71-2.17,3.92-4.44,6.4-5.39c3.12-1.2,6.83-1.86,10.12-1.43c6.86,0.92,11.56,4.81,13.71,11.79c1.95,6.34,2.44,12.81,1.43,19.16
			c-0.87,5.47-2.87,10.84-4.97,16.01c-2.19,5.38-4.87,10.6-7.77,15.64c-1.94,3.39-4.4,6.56-7.04,9.44c-4.4,4.79-9.14,9.28-14,14.15
			c3.5,3.84,7.93,6.46,13.39,6.79c3.98,0.24,7.34-1.57,9.42-4.98c3.94-6.43,7.93-12.85,11.37-19.55
			c4.75-9.25,8.91-18.78,12.37-28.62c3.84-10.92,8.05-21.7,12.12-32.53c0.38-1.01,0.85-1.99,1.37-2.93
			c1.63-2.89,3.87-3.71,6.94-2.59c2.68,0.97,4.35,3.42,3.59,6.24c-1.52,5.64-3.38,11.18-5.1,16.77c-0.24,0.8-0.48,1.6-0.68,2.41
			c-1.2,4.99-2.42,9.97-3.56,14.97c-0.47,2.08-0.8,4.21-1.12,6.32c-0.47,3.18-0.9,6.37-1.3,9.56c-0.47,3.8-1.17,7.6-1.24,11.41
			c-0.11,5.79-0.82,11.65,1.03,17.33c0.86,2.65,2.07,5.06,4.58,6.55c1.78,1.06,3.23,0.91,4.73-0.77c4.46-5.01,7.24-10.97,9.89-16.99
			c2.11-4.8,3.96-9.72,5.65-14.68c1.61-4.73,2.77-9.61,4.28-14.38c0.75-2.36,1.85-4.6,2.8-6.89c0.32-0.77,0.84-1.51,0.97-2.31
			c1.27-7.9,4.98-14.97,7.54-22.42c0.7-2.03,1.35-4.07,2.17-6.05c1.43-3.45,4.16-5.19,6.8-4.47c3.12,0.86,5.16,4.26,4.37,7.95
			c-0.97,4.56-2.31,9.04-3.39,13.57c-1.91,8.01-3.28,16.18-5.75,24.01c-1.91,6.06-2.55,12.14-2.72,18.33
			c-0.11,3.68,0.38,7.4,0.88,11.06c0.34,2.47,1.26,4.86,1.75,7.32c0.8,4.04,3.32,6.17,7.52,7.07c1.02-1.24,2.29-2.39,3.08-3.8
			c1.88-3.33,3.57-6.76,5.25-10.19c0.89-1.82,1.41-3.84,2.42-5.58c1.44-2.48,1.81-5.18,1.84-7.87c0.09-7.17,1.99-14,3.88-20.78
			c2.01-7.24,4.3-14.44,7.1-21.4c2.56-6.37,6.57-11.99,11.99-16.34c4.5-3.62,9.8-5.57,15.59-5.5c1.76,0.02,3.98,0.83,5.18,2.07
			c3.39,3.48,4.35,7.92,3.17,12.63c-0.24,0.94-1.46,2.2-2.3,2.26c-0.83,0.05-2.3-1.09-2.53-1.96c-1.57-5.9-4.79-6.06-10.27-3.7
			c-2.98,1.29-5.01,3.54-6.97,6.02c-4.56,5.77-6.95,12.48-8.84,19.44c-1.82,6.69-4.01,13.29-5.46,20.05
			c-1.1,5.13-1.43,10.44-0.31,15.7c0.32,1.52,0.65,3.06,0.78,4.6c0.36,4.32,2.98,7.54,5.41,10.75c1.72,2.27,4.8,2.31,7.28,2.44
			c5.89,0.31,11.44-0.63,16.48-4.53c7.03-5.44,12.25-12.24,16.92-19.62c1.91-3.01,3.86-6,5.81-8.98c2.06-3.16,3.18-6.54,3.5-10.37
			c0.32-3.9,1.39-7.73,2.08-11.6c0.25-1.4,0.3-2.83,0.52-4.24c1.53-9.55,3.11-19.09,4.62-28.64c1.06-6.72,1.79-13.51,3.12-20.17
			c2.42-12.18,5-24.34,7.86-36.43c1.73-7.31,3.45-14.75,6.38-21.62c2.96-6.94,5.45-14.5,11.82-19.43c2.12-1.64,4.6-3.02,7.12-3.91
			c3.14-1.11,5.72,1.08,7.63,3.02c1.83,1.86,3.01,4.54,3.95,7.06c1.63,4.37,2.56,8.97,2.53,13.66c-0.05,7.51,0.37,15.05-1.43,22.46
			c-0.64,2.66-0.93,5.4-1.56,8.06c-1.41,5.91-2.81,11.83-4.47,17.68c-0.71,2.51-2.06,4.83-3.11,7.25
			C454.57,301.24,451.72,307.77,448.7,314.72z M163.54,339.06c0.26,0.04,0.53,0.08,0.79,0.11c0.39-0.66,0.85-1.28,1.17-1.97
			c0.77-1.61,1.45-3.27,2.21-4.88c1.93-4.05,4.03-8.04,5.81-12.15c2.12-4.91,3.92-9.95,5.95-14.89c1.49-3.63,3.36-7.11,4.67-10.8
			c3.27-9.19,6.38-18.43,9.44-27.69c3.25-9.85,6.48-19.74,7.5-30.12c0.42-4.33,0.56-8.84-1.65-13.03c-2.78-0.7-5.36-0.38-7.38,1.61
			c-2.37,2.33-4.57,4.84-6.7,7.38c-3.48,4.14-6.46,8.66-8.11,13.83c-2.03,6.35-3.8,12.8-5.45,19.26c-1.06,4.16-1.82,8.4-2.5,12.64
			c-0.91,5.63-1.61,11.3-2.42,16.95c-0.91,6.35-1.91,12.69-2.7,19.06c-0.27,2.23,0.07,4.52-0.03,6.78
			c-0.19,4.01-0.56,8.01-0.74,12.02C163.32,335.12,163.49,337.09,163.54,339.06z M662.45,351.13c-2.74,4.08-3.1,8.26-3.55,12.17
			c-1.03,8.99-2.85,17.95-2.34,27.08c0.33,5.96,1.89,11.41,7.46,14.6c3.06,1.75,6.95,2.8,9.97,1.37c3.52-1.66,7.11-4.02,9.05-7.86
			c3.22-6.37,6.69-12.64,9.56-19.16c1.5-3.4,1.95-7.27,2.92-11.12c-1.17-0.39-1.92-0.75-2.69-0.87c-3.17-0.49-6.4-0.71-9.53-1.38
			C674.48,364.05,666.58,360.71,662.45,351.13z M426.09,332.14c0.31,0.06,0.61,0.12,0.92,0.19c0.91-1.52,1.97-2.98,2.72-4.57
			c5.28-11.22,10.28-22.58,15.81-33.67c4.74-9.51,7.41-19.62,9.95-29.81c0.89-3.58,1.87-7.25,1.94-10.9
			c0.14-6.66-0.12-13.35-0.74-19.98c-0.23-2.43-0.21-5.53-3.23-7.3c-1.36,1.67-2.84,3.1-3.85,4.8c-4.49,7.55-7.49,15.75-9.56,24.24
			c-2.42,9.96-4.73,19.96-6.69,30.02c-1.98,10.19-3.55,20.47-5.16,30.73C427.36,321.28,426.79,326.72,426.09,332.14z M724.92,419.26
			c-0.28-0.09-0.56-0.18-0.84-0.27c-0.62,0.84-1.36,1.62-1.84,2.54c-2.99,5.71-6.08,11.38-8.82,17.21
			c-3.61,7.69-7.09,15.45-10.31,23.32c-1.71,4.18-3.02,8.57-4.02,12.98c-0.94,4.18-1.19,8.52-1.82,12.77
			c-0.8,5.37-0.01,10.52,2.29,15.38c1.37,2.89,3.02,3.35,5.86,1.99c3.27-1.57,5.81-3.89,6.73-7.52c1.11-4.39,2.14-8.81,3.04-13.25
			c0.9-4.45,1.64-8.93,2.38-13.41c1.32-7.89,2.65-15.79,3.85-23.7c1.13-7.44,2.14-14.91,3.13-22.37
			C724.8,423.06,724.8,421.15,724.92,419.26z M770.03,418.39c-1.06,1.32-1.73,1.97-2.17,2.74c-2.52,4.47-5.27,8.85-7.42,13.5
			c-4.22,9.12-8.24,18.35-12.07,27.65c-1.67,4.06-2.96,8.34-3.91,12.64c-0.96,4.3-1.27,8.74-1.88,13.12
			c-0.74,5.37,0.06,10.52,2.43,15.36c1.31,2.67,2.92,3.08,5.64,1.84c3.84-1.75,6.39-4.65,7.25-8.81c1.06-5.14,2-10.3,2.91-15.47
			c1.55-8.71,3.12-17.41,4.54-26.14c1.64-10.14,3.16-20.3,4.65-30.46C770.25,422.66,770.03,420.9,770.03,418.39z M214.99,388.52
			c1.63-1.48,2.83-2.43,3.87-3.54c2.03-2.17,3.85-4.54,5.96-6.61c5.81-5.69,9.59-12.7,12.75-20.02c1.83-4.23,2.64-8.9,4.41-13.16
			c2.4-5.79,1.9-11.47,0.21-17.18c-1.32-4.46-5.87-5.47-9.29-2.18c-1.36,1.32-2.78,2.66-3.8,4.24c-3.17,4.88-6.69,9.65-9.1,14.9
			c-2.66,5.8-5.03,11.85-5.7,18.36c-0.17,1.66-0.65,3.28-0.89,4.94C212.47,374.83,212.52,381.33,214.99,388.52z M781.37,225.23
			c-1.38,0.98-2.87,1.76-4.01,2.9c-3.67,3.66-6.3,8.09-8.35,12.79c-1.81,4.13-3.29,8.44-4.63,12.75c-2.58,8.3-5.35,16.57-7.33,25.02
			c-2.12,9.07-3.45,18.33-5.06,27.52c-0.64,3.63-1.1,7.3-1.64,10.95c0.23,0.07,0.46,0.15,0.69,0.22c2.36-3.97,4.8-7.91,7.08-11.93
			c5.01-8.84,9.48-17.95,13.07-27.45c2.62-6.93,4.69-14.07,7.45-20.94c3.26-8.12,4.75-16.52,5.25-25.16
			C784.02,229.64,784.02,227.31,781.37,225.23z M825.58,226.32c-3.46,1.04-5.15,3.68-6.76,6.07c-4.85,7.2-7.41,15.43-9.64,23.73
			c-1.23,4.59-2.12,9.27-3.24,13.89c-1.23,5.09-2.54,10.15-3.81,15.22c-0.78,3.11-1.7,6.2-2.32,9.35
			c-1.06,5.37-1.91,10.79-2.89,16.17c-0.32,1.73-0.76,3.43-1.15,5.15c0.26,0.08,0.51,0.17,0.77,0.25c0.2-0.29,0.42-0.56,0.61-0.86
			c7.81-12.67,14.23-26.05,19.56-39.91c3.07-8.01,5.69-16.22,7.97-24.48c1.45-5.24,2.26-10.73,2.67-16.16
			C827.52,232.1,827.81,228.97,825.58,226.32z M679.81,325.7c-1.31,1.18-2.09,2.17-3.11,2.73c-2.41,1.32-3.66,3.44-4.26,5.93
			c-0.58,2.42-1.44,5.01-1.08,7.37c0.64,4.24,2.21,8.01,6.58,10.37c3.79,2.05,7.81,2.99,11.82,3.63c2.44,0.39,5.38,1.56,7.93-0.34
			c0.19-1.52,0.52-2.94,0.51-4.35c-0.01-3.56,0.26-7.2-0.36-10.67c-0.68-3.77-3.1-6.8-5.45-9.9
			C688.94,325.9,684.78,324.69,679.81,325.7z"/>
		<path d="M121.97,469.14c5.31-0.11,10.05-0.31,14.79-0.3c7.53,0.02,15.06,0.19,22.59,0.25c3.71,0.03,7.43-0.09,11.14-0.05
			c16.66,0.18,33.33,0.37,49.99,0.61c3.81,0.05,7.62,0.29,11.87,0.46c0,3.02,0.66,6.04-0.12,8.63c-3.24,10.79-8.32,20.68-16.29,28.8
			c-6.1,6.22-13.63,9.68-22.33,10.39c-8.34,0.68-16.58,2.45-25.04,1.84c-7.44-0.53-14.95-0.99-21.65-4.42
			c-9.6-4.92-17.7-11.55-20.74-22.58c-1.56-5.64-2.92-11.35-4.15-17.07C121.64,473.89,121.97,471.94,121.97,469.14z M127.94,474.34
			c0.14,9.08,2.6,17,7.13,23.65c3.84,5.64,9.73,9.81,16.47,12.26c5.6,2.04,11.47,2.74,17.28,2.74c8.48-0.01,16.99-0.48,25.42-1.42
			c7.08-0.79,13.28-4,17.94-9.6c5.73-6.88,9.47-14.89,12.66-23.16c0.51-1.33,0.37-2.92,0.54-4.47
			C192.76,474.34,160.63,474.34,127.94,474.34z"/>
		<path d="M214.11,435.57c-10.64,0-21.29,0.22-31.93-0.06c-10.13-0.27-20.25-1.21-30.38-1.56c-8.85-0.31-17.71-0.19-26.56-0.33
			c-1.9-0.03-3.83-0.24-5.69-0.62c-1.7-0.34-2.71-1.53-2.62-3.37c0.1-1.96,1.25-3.14,3.12-3.37c2.61-0.31,5.25-0.58,7.88-0.57
			c9.58,0.04,19.15,0.22,28.72,0.33c6.2,0.07,12.41,0.05,18.61,0.19c5.14,0.11,10.28,0.55,15.43,0.57
			c11.47,0.03,22.95-0.09,34.42-0.2c2.15-0.02,4.3-0.37,6.45-0.35c3.48,0.03,5.45,1.71,5.4,4.41c-0.04,2.61-2.27,4.65-5.28,4.77
			c-5.85,0.24-11.7,0.45-17.55,0.67C214.12,435.91,214.11,435.74,214.11,435.57z"/>
		<path d="M145.2,442.81c9.94-0.32,19.88-0.67,29.82-0.95c10.04-0.29,20.09-0.44,30.12-0.81c6.57-0.25,13.13-0.81,19.7-1.18
			c1.91-0.11,3.84-0.15,5.75,0.02c2.4,0.22,3.78,1.65,4.08,3.86c0.36,2.66-0.38,4.12-2.9,5.02c-1.3,0.46-2.75,0.53-4.14,0.71
			c-0.58,0.08-1.19-0.06-1.78-0.02c-18.89,1.02-37.79,0.64-56.68,0.46c-10.3-0.1-20.6-0.22-30.9-0.44
			c-3.58-0.08-7.16-0.43-10.73-0.78c-1.03-0.1-2.17-0.44-2.99-1.03c-1.61-1.17-1.28-3.3,0.59-3.94c1.22-0.42,2.58-0.59,3.88-0.6
			c5.39-0.06,10.78-0.03,16.17-0.03C145.2,442.98,145.2,442.89,145.2,442.81z"/>
		<path d="M182.98,465.68c-14.48-0.62-28.97-1.22-43.45-1.9c-1.89-0.09-3.85-0.4-5.6-1.06c-0.87-0.33-1.94-1.72-1.87-2.55
			c0.08-1.05,1.01-2.5,1.95-2.92c1.35-0.6,3.04-0.55,4.59-0.56c19.51-0.19,39.02-0.29,58.54-0.54c6.09-0.08,12.18-0.57,18.27-0.81
			c1.54-0.06,3.1-0.01,4.63,0.19c3.24,0.42,4.56,1.9,4.49,4.86c-0.06,2.67-2.26,4.75-5.28,4.8c-7.19,0.1-14.37,0.14-21.56,0.17
			c-4.9,0.02-9.8,0-14.7,0C182.99,465.47,182.98,465.58,182.98,465.68z"/>
	</g>
</g>
<g id="Ebene_1">
</g>
</svg>
